/vscmnt/brussel_pixiu_data/_data_brussel/112/vsc11236/PredSimResults/SUBJ09opt3D/expIG/worker_04.mot
version=1
nRows=10
nColumns=50
inDegrees=yes
endheader
                time	         pelvis_tilt	         pelvis_list	     pelvis_rotation	           pelvis_tx	           pelvis_ty	           pelvis_tz	       hip_flexion_r	     hip_adduction_r	      hip_rotation_r	        knee_angle_r	       ankle_angle_r	         mtp_angle_r	       hip_flexion_l	     hip_adduction_l	      hip_rotation_l	        knee_angle_l	       ankle_angle_l	         mtp_angle_l	    lumbar_extension	      lumbar_bending	     lumbar_rotation	 ercspn_r/activation	 intobl_r/activation	 extobl_r/activation	    abd_r/activation	    add_r/activation	hamstrings_r/activation	bifemsh_r/activation	glut_max_r/activation	iliopsoas_r/activation	rect_fem_r/activation	  vasti_r/activation	gastroc_r/activation	 soleus_r/activation	tib_ant_r/activation	 ercspn_l/activation	 intobl_l/activation	 extobl_l/activation	    abd_l/activation	    add_l/activation	hamstrings_l/activation	bifemsh_l/activation	glut_max_l/activation	iliopsoas_l/activation	rect_fem_l/activation	  vasti_l/activation	gastroc_l/activation	 soleus_l/activation	tib_ant_l/activation	
          2.26766262	         -2.60695263	          0.51370161	         -7.52467988	          2.04089636	          1.00240908	          0.00598703	         -9.79548815	         -2.47498340	         -9.93763499	        -13.16297650	          7.68902183	         30.34588698	         23.23497019	         -1.33474887	        -10.09541995	         -0.94565546	          1.83871167	          0.21062605	        -13.98160113	          2.98319100	          7.54324722	          0.01000007	          0.00999999	          0.00999999	          0.05726113	          0.01000000	          0.01140047	          0.08221463	          0.03242736	          0.01251964	          0.01251965	          0.01000000	          0.24007013	          0.25453670	          0.01077891	          0.01567405	          0.21926530	          0.05904793	          0.00999999	          0.20485414	          0.02976729	          0.04059032	          0.00999999	          0.09838854	          0.03075780	          0.02030955	          0.01000000	          0.00999999	          0.28715920	
          2.28278037	         -2.73137603	          0.55604591	         -7.44517296	          2.05877494	          1.00034967	          0.00466225	        -10.39091569	         -2.75168258	        -10.56346138	        -13.71964118	          6.99088509	         31.70101873	         22.61170788	         -1.07137253	        -10.39584315	         -1.13963670	          1.26334775	          0.22095860	        -13.42804811	          2.55311202	          7.72241151	          0.01000001	          0.01000000	          0.01000010	          0.04573710	          0.01000002	          0.03347445	          0.06566861	          0.02590128	          0.01000002	          0.01000003	          0.02038146	          0.22261892	          0.23774593	          0.00999999	          0.01251959	          0.21143758	          0.04716430	          0.00999999	          0.17876615	          0.04119359	          0.03242137	          0.01910724	          0.07858745	          0.02456767	          0.01622219	          0.01567410	          0.01566171	          0.29706413	
          2.29789812	         -2.83351738	          0.66013828	         -7.32507506	          2.07719463	          0.99851214	          0.00330860	        -10.91365270	         -3.11690104	        -11.21322806	        -14.48580164	          6.14858535	         33.07655406	         21.88034041	         -0.78916909	        -10.65868557	         -1.42431258	          0.59279968	          0.21144092	        -12.82638850	          2.02801790	          7.86494181	          0.01000000	          0.00999999	          0.01000001	          0.03653232	          0.01000000	          0.03225085	          0.05245254	          0.02068854	          0.01000001	          0.01000001	          0.02041720	          0.19917940	          0.21510288	          0.00999999	          0.01000000	          0.18725098	          0.03767229	          0.05919514	          0.14278875	          0.05412599	          0.02589648	          0.01526184	          0.06277141	          0.01962333	          0.01295741	          0.01251963	          0.01250973	          0.34739856	
          2.31301587	         -2.91777084	          0.79936416	         -7.15675484	          2.09579992	          0.99721224	          0.00186638	        -11.25126618	         -3.55903377	        -11.88380125	        -15.60792723	          5.08793402	         34.45706147	         21.10905655	         -0.46497626	        -11.00904105	         -1.64145664	         -0.19937590	          0.18799947	        -12.22157883	          1.44559560	          7.96931845	          0.01000000	          0.00999999	          0.01000000	          0.02918004	          0.01000000	          0.03565364	          0.04189626	          0.01652489	          0.01000003	          0.01000001	          0.02189193	          0.15909375	          0.19168938	          0.00999999	          0.01000005	          0.14956597	          0.03009059	          0.09186149	          0.11405204	          0.05855047	          0.02068472	          0.03756111	          0.05013841	          0.01567406	          0.02397642	          0.01000001	          0.00999999	          0.37981929	
          2.32813362	         -2.98536711	          0.96723298	         -6.94709791	          2.11429080	          0.99669338	          0.00033543	        -11.31515802	         -4.08960639	        -12.56000257	        -17.20256794	          3.79378748	         35.73021020	         20.37635105	         -0.11481523	        -11.40971329	         -1.97783749	         -0.78022289	          0.16114612	        -11.64829169	          0.81644074	          8.03407792	          0.03699801	          0.00999999	          0.01000000	          0.02330744	          0.01000000	          0.05043548	          0.03346447	          0.01319919	          0.01000002	          0.01000001	          0.02456771	          0.12707549	          0.15311113	          0.00999999	          0.01000003	          0.11946521	          0.02403474	          0.13024934	          0.09109865	          0.05613635	          0.01652185	          0.05877614	          0.04004785	          0.01251959	          0.02005713	          0.01000000	          0.01000000	          0.38980715	
          2.34325137	         -3.03757165	          1.16020141	         -6.71148785	          2.13242355	          0.99712525	         -0.00126542	        -11.04079162	         -4.72259225	        -13.22662293	        -19.34911383	          2.29052733	         36.68610230	         19.69815149	          0.25946495	        -11.74224787	         -2.44996567	         -1.06600048	          0.13544565	        -11.13034867	          0.14874749	          8.06431531	          0.06380625	          0.02096229	          0.01000000	          0.01861673	          0.02819615	          0.06495242	          0.02672962	          0.01054280	          0.01000001	          0.01000000	          0.01962336	          0.10150103	          0.12229690	          0.00999999	          0.01000001	          0.09542236	          0.01919765	          0.14827657	          0.08663314	          0.05775103	          0.01319678	          0.07845253	          0.03198806	          0.01000000	          0.02999205	          0.01000004	          0.01000003	          0.37591434	
          2.35836912	         -3.07537920	          1.34467405	         -6.46299507	          2.15004479	          0.99850373	         -0.00290561	        -10.38465053	         -5.43891403	        -13.91497373	        -22.10095570	          0.62725338	         37.06932489	         19.04508016	          0.62705534	        -11.95752570	         -2.99267032	         -1.07805776	          0.11957773	        -10.68362915	         -0.51409257	          8.06509528	          0.05508018	          0.03220345	          0.01000000	          0.01487003	          0.04137298	          0.07265663	          0.02135019	          0.00999999	          0.01000004	          0.01000000	          0.01567408	          0.08107354	          0.09768415	          0.00999999	          0.01000010	          0.07621822	          0.01533405	          0.15123695	          0.06951726	          0.06320079	          0.01054090	          0.07267864	          0.02555033	          0.01000000	          0.04191842	          0.01000003	          0.01000001	          0.34953852	
          2.37348688	         -3.09760726	          1.46733435	         -6.20432433	          2.16712818	          1.00064131	         -0.00455035	         -9.34411768	         -6.20549165	        -14.69232002	        -25.49593020	         -1.01898427	         36.46217343	         18.37935378	          0.93390142	        -12.08969265	         -3.52977544	         -0.92144368	          0.11694878	        -10.31396631	         -1.10914875	          8.03432390	          0.04399508	          0.02786471	          0.01000000	          0.01187738	          0.08632774	          0.08148042	          0.02181130	          0.00999999	          0.01000003	          0.00999999	          0.01251961	          0.06475716	          0.07802482	          0.01137827	          0.01000010	          0.06087900	          0.01224801	          0.14063650	          0.11455855	          0.07146742	          0.01000007	          0.08066483	          0.02040823	          0.01000000	          0.04360193	          0.01000005	          0.01000086	          0.31779424	
          2.38860463	         -3.10238497	          1.48069601	         -5.92956258	          2.18373502	          1.00330218	         -0.00615911	         -7.95313566	         -6.99107710	        -15.55374156	        -29.48699014	         -2.62048433	         34.72045335	         17.65175499	          1.13506341	        -12.17938623	         -3.97656951	         -0.65813154	          0.13480502	        -10.01552077	         -1.58456555	          7.96716862	          0.03514089	          0.02915572	          0.01000005	          0.00999999	          0.14052612	          0.07934898	          0.03439358	          0.00999999	          0.01000001	          0.00999999	          0.00999999	          0.05172452	          0.06232201	          0.04890419	          0.01000001	          0.04862685	          0.01232982	          0.12519929	          0.09150394	          0.07307510	          0.01000007	          0.11122865	          0.01630099	          0.00999999	          0.05344551	          0.01000001	          0.01000000	          0.28945819	
          2.40372238	         -3.08812200	          1.36076529	         -5.63196724	          2.19990656	          1.00624271	         -0.00768979	         -6.28720177	         -7.76311143	        -16.41347551	        -33.93380417	         -4.06512319	         31.68707724	         16.82004751	          1.21202088	        -12.20841948	         -4.24918654	         -0.37509693	          0.19152488	         -9.78325184	         -1.91591626	          7.85655191	          0.02977202	          0.03348986	          0.06753857	          0.00999999	          0.14480513	          0.06509057	          0.03282164	          0.00999999	          0.01000003	          0.00999999	          0.00999999	          0.04131475	          0.04977946	          0.10224118	          0.01000003	          0.03884050	          0.01000000	          0.10665378	          0.07308842	          0.07143209	          0.01000007	          0.09300725	          0.01302035	          0.01000000	          0.05083178	          0.01000001	          0.01000000	          0.26300637	
